<?xml version="1.0" encoding="utf-8"?>
<!-- Generator: Adobe Illustrator 18.0.0, SVG Export Plug-In . SVG Version: 6.00 Build 0)  -->
<!DOCTYPE svg PUBLIC "-//W3C//DTD SVG 1.1//EN" "http://www.w3.org/Graphics/SVG/1.1/DTD/svg11.dtd">
<svg version="1.1" id="Layer_1" xmlns="http://www.w3.org/2000/svg" xmlns:xlink="http://www.w3.org/1999/xlink" x="0px" y="0px"
	 viewBox="0 0 120 31" enable-background="new 0 0 120 31" xml:space="preserve">
<g>
	<g>
		<g>
			<g>
				<path fill="#6C93AD" d="M30.4,9.7h-2.3V8.3h6.2v1.4H32v8.5h-1.6V9.7z"/>
				<path fill="#6C93AD" d="M34.5,11h1.3V12c0.4-0.9,1.2-1.3,2.2-1.3v1.4h-0.1c-1.3,0-2,0.7-2,2.2v3.9h-1.4
					C34.5,18.3,34.5,11,34.5,11z"/>
				<path fill="#6C93AD" d="M46.4,18.2H45V17c-0.5,1-1.6,1.5-2.7,1.5c-2.4,0-3.7-1.8-3.7-3.8c0-2.2,1.6-3.8,3.7-3.8
					c1.5,0,2.4,0.8,2.7,1.5V11h1.4V18.2z M39.9,14.6c0,1.1,0.8,2.5,2.6,2.5c1.1,0,1.9-0.6,2.3-1.4c0.2-0.3,0.2-0.7,0.3-1.1
					c0-0.4,0-0.8-0.2-1.1c-0.4-0.9-1.2-1.5-2.3-1.5C40.9,12,39.9,13.3,39.9,14.6L39.9,14.6z"/>
				<path fill="#6C93AD" d="M48.2,11h1.3v1.1c0.4-0.8,1.2-1.4,2.5-1.4c2.3,0,3,1.7,3,3.2v4.3h-1.4v-3.9c0-1.3-0.5-2.3-2-2.2
					c-1.4,0-2,0.9-2,2.1v4.1h-1.4L48.2,11L48.2,11z"/>
				<path fill="#6C93AD" d="M60,12.9c0-0.5-0.4-1-1-1s-1,0.5-1,1c0,0.6,0.5,0.9,1.3,1c1.1,0.3,2.3,0.6,2.4,2.2
					c0,1.4-1.1,2.4-2.6,2.4c-1.1,0-2.6-0.6-2.7-2.3h1.4c0,0.9,0.8,1.2,1.3,1.2c0.7,0,1.2-0.5,1.2-1.1c0-0.7-0.5-1-1.9-1.4
					c-1-0.3-1.8-0.8-1.8-1.9c0-1.4,1.1-2.2,2.5-2.2c1,0,2.3,0.5,2.5,2.1L60,12.9L60,12.9z"/>
				<path fill="#6C93AD" d="M63,11h1.3v1.3c0.5-0.9,1.5-1.5,2.8-1.5c2.5,0,3.7,2.1,3.7,3.9c0,2.1-1.5,3.8-3.7,3.8
					c-1.5,0-2.4-0.8-2.7-1.4v1.2v2.7H63V11z M69.4,14.6c0-1.2-0.9-2.5-2.6-2.5c-0.7,0-1.4,0.3-1.8,0.8c-0.5,0.5-0.7,1.1-0.7,1.8
					s0.3,1.4,0.7,1.8s1.1,0.7,1.8,0.7C68.3,17.2,69.4,16,69.4,14.6L69.4,14.6z"/>
				<path fill="#6C93AD" d="M79.7,18.2h-1.4V17c-0.5,1-1.6,1.5-2.7,1.5c-2.4,0-3.7-1.8-3.7-3.8c0-2.2,1.6-3.8,3.7-3.8
					c1.5,0,2.4,0.8,2.7,1.5V11h1.4V18.2z M73.2,14.6c0,1.1,0.8,2.5,2.6,2.5c1.1,0,1.9-0.6,2.3-1.4c0.2-0.3,0.2-0.7,0.3-1.1
					c0-0.4,0-0.8-0.2-1.1c-0.4-0.9-1.2-1.5-2.3-1.5C74.2,12,73.2,13.3,73.2,14.6L73.2,14.6z"/>
				<path fill="#6C93AD" d="M81.5,11h1.3V12c0.4-0.9,1.2-1.3,2.2-1.3v1.4h-0.1c-1.3,0-2,0.7-2,2.2v3.9h-1.4V11z"/>
				<path fill="#6C93AD" d="M93.3,18.2h-1.4V17c-0.5,1-1.6,1.5-2.7,1.5c-2.4,0-3.7-1.8-3.7-3.8c0-2.2,1.6-3.8,3.7-3.8
					c1.5,0,2.4,0.8,2.7,1.5V11h1.4V18.2z M86.9,14.6c0,1.1,0.8,2.5,2.6,2.5c1.1,0,1.9-0.6,2.3-1.4c0.2-0.3,0.2-0.7,0.3-1.1
					c0-0.4,0-0.8-0.2-1.1c-0.4-0.9-1.2-1.5-2.3-1.5C87.9,12,86.9,13.3,86.9,14.6L86.9,14.6z"/>
				<path fill="#6C93AD" d="M95.2,11h1.3v1.1c0.4-0.8,1.2-1.4,2.5-1.4c2.3,0,3,1.7,3,3.2v4.3h-1.4v-3.9c0-1.3-0.5-2.3-2-2.2
					c-1.4,0-2,0.9-2,2.1v4.1h-1.4L95.2,11L95.2,11z"/>
				<path fill="#6C93AD" d="M104,12h-1.3V11h1.3V8.3h1.4V11h1.4V12h-1.4v6.2H104V12z"/>
			</g>
		</g>
	</g>
	<g>
		<g>
			<path fill="#6C93AD" d="M26.5,23.3c-0.4-0.4-3.6-2.5-4.1-3c-0.5-0.5-2.1-2.1-2.1-2.1c-0.1-0.1-0.3-0.1-0.4,0l-0.8,0.8l-0.8,0.8
				c-0.1,0.1-0.1,0.3,0,0.4c0,0,1.6,1.5,2.1,2.1c0.5,0.5,2.6,3.7,3.1,4.1c0.4,0.4,4.7,4.7,4.7,4.7c0.2,0.2,0.4,0.2,0.6,0l1.2-1.2
				l1.2-1.2c0.2-0.2,0.2-0.4,0-0.6C31.2,27.9,26.9,23.6,26.5,23.3z"/>
		</g>
		<path fill="#6C93AD" d="M11.5,0C5.2,0,0,5.1,0,11.4c0,6.3,5.2,11.4,11.5,11.4S23,17.7,23,11.4C23,5.1,17.8,0,11.5,0z M11.5,21.7
			c-5.7,0-10.4-4.6-10.4-10.3c0-5.7,4.7-10.3,10.4-10.3s10.4,4.6,10.4,10.3C21.8,17.1,17.2,21.7,11.5,21.7z"/>
		<path fill="#264653" d="M21.4,8.3c-0.5-0.2-1.1-0.3-2-0.4c-0.4,0-0.8,0-1.1-0.1c-2-0.3-2.8-0.8-2.8-0.8l-0.1-0.1l0,0
			c-0.4-1.6-1.8-2.9-3.5-3c-0.1,0-0.2,0-0.3,0s-0.2,0-0.3,0C9.4,4.1,8,5.3,7.7,7l0,0L7.5,7.1c0,0-1.1,0.7-3.9,0.9
			c-0.9,0-1.6,0.2-2,0.4c-0.3,1-0.5,2-0.5,3c0,4.5,2.9,8.3,7,9.7l-0.2-8.3l2.2-1.8l1.1,1.4L10,21.6l0,0l-0.3,1.9l0,0l1.8,2.7
			l1.8-2.7L13,21.6l0,0l-1.2-9.1l1.1-1.4l2.2,1.8l-0.2,8.3c4.1-1.4,7-5.2,7-9.7C21.8,9.6,21.4,8.3,21.4,8.3z M7.8,12.4L7.7,7.7
			l0.2-0.5h0.2c0,1.5,1,2.7,2.4,3.1L7.8,12.4z M12.2,5.2c0,0-0.1,0-0.1,0c0,0,0,0-0.1,0c0,0-0.1,0-0.2,0c0,0,0,0-0.1,0
			c-0.1,0-0.2,0-0.3,0s-0.2,0-0.3,0c0,0,0,0-0.1,0c0,0-0.1,0-0.2,0c0,0,0,0-0.1,0c0,0-0.1,0-0.1,0c0,0,0,0-0.1,0c0,0-0.1,0-0.1,0
			c0,0,0,0-0.1,0c0,0-0.1,0-0.1,0.1c-0.1,0-0.1,0-0.2,0c0,0-0.1,0-0.1,0c0,0-0.1,0-0.1,0.1c0,0,0,0-0.1,0c0,0-0.1,0-0.1,0.1l0,0
			c0,0-0.1,0.1-0.1,0.1l0,0C9.2,6.2,9,6.5,8.9,6.7l0,0c0,0,0,0.1-0.1,0.2l0,0c-0.1,0.3-0.2,0.6-0.2,1c0,0,0,0.1,0,0.1
			C8.5,7.7,8.5,7.4,8.5,7.1c0-1.6,1.3-2.9,3-2.9s3,1.3,3,2.9c0,0.3,0,0.6-0.1,0.9c0,0,0-0.1,0-0.1c0-0.3,0-0.7-0.2-1l0,0
			c0,0,0-0.1-0.1-0.2l0,0c-0.1-0.3-0.3-0.5-0.5-0.7l0,0c0,0-0.1-0.1-0.1-0.1l0,0c0,0-0.1,0-0.1-0.1c0,0,0,0-0.1,0c0,0-0.1,0-0.1-0.1
			c0,0-0.1,0-0.1,0c0,0-0.1,0-0.1-0.1c0,0-0.1,0-0.1-0.1c0,0,0,0-0.1,0c0,0-0.1,0-0.1,0C12.3,5.2,12.3,5.2,12.2,5.2z M15,12.4
			l-2.7-2.1c1.4-0.4,2.4-1.6,2.4-3.1H15l0.2,0.5L15,12.4z"/>
	</g>
</g>
<g>
	<path fill="#231F20" d="M74.9,26.6h-0.8v-1.1c-0.3,0.8-1.2,1.3-2.2,1.3c-1.9,0-2.6-1.3-2.6-2.8v-3.4h0.8v3.3c0,1.3,0.6,2.2,2,2.2
		c1.3,0,2-0.8,2-2v-3.4h0.8V26.6z"/>
	<path fill="#231F20" d="M76.6,20.6h0.8v1.3c0.5-0.9,1.4-1.4,2.5-1.4c2,0,3.1,1.7,3.1,3.2c0,1.7-1.2,3.2-3.1,3.2
		c-1.3,0-2.2-0.8-2.5-1.4v1.2v2.3h-0.8V20.6z M82.2,23.6c0-1.1-0.8-2.4-2.4-2.4c-0.7,0-1.3,0.3-1.7,0.7c-0.4,0.4-0.7,1.1-0.7,1.7
		c0,0.7,0.3,1.3,0.7,1.7c0.4,0.4,1,0.7,1.7,0.7C81.1,26,82.2,25,82.2,23.6L82.2,23.6z"/>
	<path fill="#231F20" d="M84.3,18.3h0.8v8.4h-0.8V18.3z"/>
	<path fill="#231F20" d="M86.4,23.6c0-1.7,1.3-3.2,3.2-3.2c2,0,3.2,1.5,3.2,3.2s-1.3,3.2-3.2,3.2C87.6,26.8,86.4,25.3,86.4,23.6
		L86.4,23.6z M87.2,23.6c0,1.4,1.1,2.4,2.4,2.4c1.4,0,2.4-1,2.4-2.4c0-1.4-1-2.4-2.4-2.4C88.2,21.2,87.2,22.2,87.2,23.6L87.2,23.6z"
		/>
	<path fill="#231F20" d="M100.2,26.6h-0.8v-1.3c-0.5,0.9-1.4,1.4-2.5,1.4c-2,0-3.2-1.5-3.2-3.2c0-1.8,1.3-3.2,3.2-3.2
		c1.3,0,2.2,0.8,2.5,1.4v-1.3h0.8V26.6z M94.5,23.6c0,1.1,0.8,2.4,2.4,2.4c1.1,0,1.9-0.6,2.2-1.5c0.1-0.3,0.2-0.6,0.2-1
		c0-0.3-0.1-0.7-0.2-1c-0.3-0.8-1.2-1.5-2.2-1.5C95.5,21.2,94.5,22.2,94.5,23.6L94.5,23.6z"/>
	<path fill="#231F20" d="M107.9,26.6h-0.8v-1.3c-0.4,0.8-1.2,1.4-2.5,1.4c-1.9,0-3.1-1.5-3.1-3.2c0-1.8,1.3-3.2,3.1-3.2
		c1.3,0,2.2,0.8,2.5,1.4v-1.3v-2.2h0.8V26.6z M102.3,23.6c0,1.2,0.9,2.4,2.4,2.4c0.7,0,1.3-0.3,1.7-0.7c0.4-0.5,0.7-1.1,0.7-1.8
		c0-0.7-0.3-1.3-0.7-1.7c-0.4-0.4-1-0.7-1.7-0.7C103.3,21.2,102.3,22.2,102.3,23.6L102.3,23.6z"/>
	<path fill="#231F20" d="M109.9,23.8c0,1.5,1.3,2.3,2.4,2.2c0.9,0,1.7-0.5,2.1-1.3h0.9c-0.3,0.7-0.7,1.2-1.2,1.5
		c-0.5,0.3-1.1,0.5-1.7,0.5c-2.1,0-3.2-1.7-3.2-3.2c0-1.8,1.4-3.2,3.2-3.2c0.9,0,1.6,0.3,2.2,0.9c0.7,0.7,1,1.6,0.9,2.6H109.9z
		 M114.6,23.2c-0.1-1.1-1.1-2.1-2.3-2.1c-1.3,0-2.3,1-2.4,2.1H114.6z"/>
	<path fill="#231F20" d="M116.6,20.6h0.8v1c0.4-0.9,1.2-1.1,1.9-1.2v0.8h-0.1c-1.2,0-1.8,0.7-1.8,2.1v3.3h-0.8V20.6z"/>
</g>
</svg>
